<svg width="32" height="32" viewBox="0 0 32 32" fill="none" xmlns="http://www.w3.org/2000/svg">
<g clip-path="url(#clip0_34158_277124)">
<rect x="1" y="1" width="30" height="30" rx="2" fill="#347F41"/>
<g clip-path="url(#clip1_34158_277124)">
<rect width="14.75" height="9.66667" transform="matrix(-1 0 0 -1 15.75 10.6665)" fill="#8CEDCC"/>
<path d="M8.09863 7.6665V4.95166H8.05225L7.20264 5.52539V4.75391L8.09863 4.14355H8.99463V7.6665H8.09863Z" fill="#347F41"/>
</g>
<g clip-path="url(#clip2_34158_277124)">
<rect width="14.75" height="9.66667" transform="matrix(-1 0 0 -1 31 20.8335)" fill="#8CEDCC"/>
<path d="M22.123 15.4189C22.123 14.7036 22.687 14.2153 23.5098 14.2153C24.3252 14.2153 24.811 14.6572 24.811 15.2603C24.811 15.6777 24.6255 15.9536 24.064 16.4614L23.3706 17.0889V17.1353H24.8525V17.8335H22.1743V17.2354L23.4341 16.0952C23.8687 15.6973 23.9419 15.5459 23.9419 15.3384C23.9419 15.0942 23.771 14.8916 23.4634 14.8916C23.1362 14.8916 22.9434 15.1138 22.9434 15.4189H22.123Z" fill="#347F41"/>
</g>
<g clip-path="url(#clip3_34158_277124)">
<rect width="14.75" height="9.66667" transform="matrix(-1 0 0 -1 15.75 31)" fill="#8CEDCC"/>
<path d="M7.76416 26.4985V25.8931H8.21582C8.51367 25.8931 8.70654 25.7197 8.70654 25.4658C8.70654 25.2266 8.52344 25.0508 8.2207 25.0508C7.90332 25.0508 7.71045 25.2192 7.6958 25.5049H6.88037C6.89258 24.8286 7.42725 24.3818 8.26465 24.3818C9.08984 24.3818 9.5415 24.814 9.53906 25.3389C9.53906 25.7637 9.26562 26.0444 8.87988 26.1348V26.1812C9.3877 26.252 9.68066 26.5669 9.68066 27.0308C9.68066 27.6606 9.08008 28.0952 8.23291 28.0952C7.39551 28.0952 6.82666 27.6436 6.79492 26.9502H7.64941C7.66162 27.2212 7.88135 27.3896 8.2207 27.3896C8.54785 27.3896 8.77002 27.2114 8.77002 26.9453C8.77002 26.667 8.56006 26.4985 8.21582 26.4985H7.76416Z" fill="#347F41"/>
</g>
<rect width="14.75" height="9.66667" transform="matrix(-1 0 0 -1 31 10.6665)" fill="#E5FDEC"/>
<rect width="14.75" height="9.66667" transform="matrix(-1 0 0 -1 15.75 20.8335)" fill="#E5FDEC"/>
<rect width="14.75" height="9.66667" transform="matrix(-1 0 0 -1 31 31)" fill="#E5FDEC"/>
</g>
<rect x="0.5" y="0.5" width="31" height="31" rx="2.5" stroke="black" stroke-opacity="0.9"/>
<defs>
<clipPath id="clip0_34158_277124">
<rect x="1" y="1" width="30" height="30" rx="2" fill="white"/>
</clipPath>
<clipPath id="clip1_34158_277124">
<rect width="14.75" height="9.66667" fill="white" transform="matrix(-1 0 0 -1 15.75 10.6665)"/>
</clipPath>
<clipPath id="clip2_34158_277124">
<rect width="14.75" height="9.66667" fill="white" transform="matrix(-1 0 0 -1 31 20.8335)"/>
</clipPath>
<clipPath id="clip3_34158_277124">
<rect width="14.75" height="9.66667" fill="white" transform="matrix(-1 0 0 -1 15.75 31)"/>
</clipPath>
</defs>
</svg>
